<svg width="25" height="24" viewBox="0 0 25 24" fill="none" xmlns="http://www.w3.org/2000/svg">
<path d="M12.6675 12C14.8766 12 16.6675 10.2091 16.6675 8C16.6675 5.79086 14.8766 4 12.6675 4C10.4583 4 8.66748 5.79086 8.66748 8C8.66748 10.2091 10.4583 12 12.6675 12Z" fill="url(#paint0_linear_303_6474)"/>
<path d="M12.6675 14C9.99748 14 4.66748 15.34 4.66748 18V19C4.66748 19.55 5.11748 20 5.66748 20H19.6675C20.2175 20 20.6675 19.55 20.6675 19V18C20.6675 15.34 15.3375 14 12.6675 14Z" fill="url(#paint1_linear_303_6474)"/>
<defs>
<linearGradient id="paint0_linear_303_6474" x1="4.33448" y1="2.31111" x2="11.2629" y2="17.7013" gradientUnits="userSpaceOnUse">
<stop offset="0.0760203" stop-color="#1C4FD6"/>
<stop offset="1" stop-color="#0697E9"/>
</linearGradient>
<linearGradient id="paint1_linear_303_6474" x1="-3.99852" y1="12.7333" x2="-1.71991" y2="26.2306" gradientUnits="userSpaceOnUse">
<stop offset="0.0760203" stop-color="#1C4FD6"/>
<stop offset="1" stop-color="#0697E9"/>
</linearGradient>
</defs>
</svg>
