<svg width="12" height="12" viewBox="0 0 12 12" fill="none" xmlns="http://www.w3.org/2000/svg">
<path d="M9.9525 8.55814H9.15181C9.09714 8.55814 9.04589 8.58256 9.01172 8.62559C8.93199 8.72442 8.84657 8.81977 8.75659 8.91047C8.38858 9.28655 7.95268 9.58626 7.47298 9.79303C6.976 10.0073 6.44184 10.1173 5.90235 10.1163C5.35679 10.1163 4.82831 10.007 4.33172 9.79303C3.85202 9.58626 3.41612 9.28655 3.04811 8.91047C2.67944 8.53566 2.38548 8.09141 2.1825 7.60233C1.97179 7.09536 1.86587 6.55698 1.86587 6.00001C1.86587 5.44303 1.97293 4.90466 2.1825 4.39769C2.38523 3.90815 2.67681 3.46746 3.04811 3.08955C3.41941 2.71164 3.85108 2.41397 4.33172 2.20699C4.82831 1.99304 5.35679 1.88374 5.90235 1.88374C6.44791 1.88374 6.97639 1.99188 7.47298 2.20699C7.95362 2.41397 8.38529 2.71164 8.75659 3.08955C8.84657 3.18141 8.93085 3.27676 9.01172 3.37443C9.04589 3.41746 9.09828 3.44187 9.15181 3.44187H9.9525C10.0243 3.44187 10.0687 3.36048 10.0288 3.29885C9.15523 1.91281 7.62674 0.995366 5.88982 1.00002C3.16087 1.00699 0.972918 3.26862 1.00025 6.05117C1.02759 8.78954 3.21212 11 5.90235 11C7.63471 11 9.15637 10.0837 10.0288 8.70117C10.0675 8.63954 10.0243 8.55814 9.9525 8.55814ZM10.965 5.92675L9.34885 4.62443C9.28849 4.57559 9.20079 4.61978 9.20079 4.69769V5.58141H5.62444C5.57433 5.58141 5.53333 5.62327 5.53333 5.67443V6.32559C5.53333 6.37675 5.57433 6.41861 5.62444 6.41861H9.20079V7.30233C9.20079 7.38024 9.28963 7.42442 9.34885 7.37559L10.965 6.07326C10.9759 6.06456 10.9847 6.05344 10.9908 6.04075C10.9969 6.02806 11 6.01413 11 6.00001C11 5.98589 10.9969 5.97196 10.9908 5.95926C10.9847 5.94657 10.9759 5.93545 10.965 5.92675V5.92675Z" fill="url(#paint0_linear_1_2307)" stroke="url(#paint1_linear_1_2307)" stroke-width="0.5"/>
<defs>
<linearGradient id="paint0_linear_1_2307" x1="1.16529" y1="-0.111106" x2="11.9236" y2="0.362698" gradientUnits="userSpaceOnUse">
<stop stop-color="#F9734F"/>
<stop offset="1" stop-color="#FB4057"/>
</linearGradient>
<linearGradient id="paint1_linear_1_2307" x1="1.16529" y1="-0.111106" x2="11.9236" y2="0.362698" gradientUnits="userSpaceOnUse">
<stop stop-color="#F9734F"/>
<stop offset="1" stop-color="#FB4057"/>
</linearGradient>
</defs>
</svg>
