<svg width="30" height="30" viewBox="0 0 30 30" fill="none" xmlns="http://www.w3.org/2000/svg">
<circle cx="15" cy="15" r="15" fill="url(#paint0_linear_1_621)"/>
<path fill-rule="evenodd" clip-rule="evenodd" d="M7.93775 10H5.75019C5.12503 10 5 10.3136 5 10.6603C5 11.2779 5.74119 14.3435 8.45388 18.3968C10.2613 21.1659 12.809 22.6667 15.1266 22.6667C16.5179 22.6667 16.69 22.3328 16.69 21.76V19.6672C16.69 19.0005 16.822 18.8672 17.2621 18.8672C17.5872 18.8672 18.1423 19.04 19.4417 20.3744C20.925 21.9573 21.1691 22.6667 22.0033 22.6667H24.1919C24.817 22.6667 25.1301 22.3328 24.9491 21.6747C24.752 21.0197 24.0438 20.0683 23.1036 18.9408C22.5935 18.2987 21.8293 17.6064 21.5972 17.2597C21.2859 16.8338 21.358 16.6348 21.5684 16.2712C21.5875 16.2384 21.6075 16.2064 21.6284 16.1747C21.9275 15.722 24.2806 12.1309 24.541 10.8576C24.681 10.3637 24.541 10 23.8788 10H21.6912C21.1422 10 20.8846 10.3057 20.7443 10.6471C20.7407 10.6559 20.7378 10.6634 20.7343 10.6723C20.655 10.8756 19.5676 13.6224 18.0503 15.4304C17.5402 15.9744 17.3081 16.1483 17.0301 16.1483C16.891 16.1483 16.69 15.9744 16.69 15.4805V10.8576C16.69 10.2645 16.5289 10 16.0648 10H12.6259C12.2788 10 12.0698 10.2752 12.0698 10.5365C12.0698 11.0987 12.858 11.2288 12.939 12.8107V16.2464C12.939 17.0005 12.812 17.1371 12.5329 17.1371C11.7917 17.1371 9.98727 14.2315 8.917 10.9077C8.70694 10.2613 8.49689 10 7.93775 10Z" fill="white"/>
<defs>
<linearGradient id="paint0_linear_1_621" x1="-16.2488" y1="-6.33333" x2="9.73296" y2="51.3798" gradientUnits="userSpaceOnUse">
<stop offset="0.0760203" stop-color="#1C4FD6"/>
<stop offset="1" stop-color="#0697E9"/>
</linearGradient>
</defs>
</svg>
