<svg width="205" height="38" viewBox="0 0 205 38" fill="none" xmlns="http://www.w3.org/2000/svg">
<path d="M91 9.79881L95.8134 2.00816L106.701 28.211L111.298 17.1463H120.706L125.304 28.211L137.025 0H145.076L129.329 37.8987L129.371 38H121.237L121.279 37.8987L116.002 25.1996L110.726 37.8987L110.768 38H102.633L102.675 37.8987L91 9.79881Z" fill="url(#paint0_linear_1_97)"/>
<path fill-rule="evenodd" clip-rule="evenodd" d="M158.05 30.5854C161.868 30.5854 166.882 26.5421 166.882 19C166.882 11.4579 161.868 7.41463 158.05 7.41463C154.233 7.41463 149.218 11.4579 149.218 19C149.218 26.5421 154.233 30.5854 158.05 30.5854ZM158.05 38C167.036 38 174.32 29.4934 174.32 19C174.32 8.50659 167.036 0 158.05 0C149.065 0 141.781 8.50659 141.781 19C141.781 29.4934 149.065 38 158.05 38Z" fill="url(#paint1_linear_1_97)"/>
<path d="M182.687 7.41463H175.163L167.812 0.0863246V0H205V0.0863303L197.649 7.41463L190.125 7.41463V38H182.687V7.41463Z" fill="url(#paint2_linear_1_97)"/>
<path d="M115.052 0H116.911V17.1463H115.052V0Z" fill="url(#paint3_linear_1_97)"/>
<path d="M114.122 0H117.841V3.70732H114.122V0Z" fill="url(#paint4_linear_1_97)"/>
<path d="M19.5152 14.8293V22.2439H31.4147V30.5854L39.0303 38V14.8293H19.5152Z" fill="url(#paint5_linear_1_97)"/>
<path d="M93 0H66.1612C55.3832 0 46.646 8.50659 46.646 19C46.646 29.4934 55.3832 38 66.1612 38H74.8175L67.2018 30.5854H66.1612C59.5893 30.5854 54.2617 25.3984 54.2617 19C54.2617 12.6016 59.5893 7.41463 66.1612 7.41463H88.3092L93 0Z" fill="url(#paint6_linear_1_97)"/>
<path d="M66.1612 14.8293V22.2439H78.0607V30.5854L85.6763 38V14.8293H66.1612Z" fill="url(#paint7_linear_1_97)"/>
<path d="M7.61567 19C7.61567 25.3984 12.9433 30.5854 19.5152 30.5854H20.5558L28.1715 38H19.5152C8.73724 38 0 29.4934 0 19C0 8.50659 8.73724 0 19.5152 0H54.1928L46.5771 7.41463H19.5152C12.9433 7.41463 7.61567 12.6016 7.61567 19Z" fill="url(#paint8_linear_1_97)"/>
<defs>
<linearGradient id="paint0_linear_1_97" x1="148" y1="0" x2="148" y2="38" gradientUnits="userSpaceOnUse">
<stop offset="0.0729167" stop-color="white"/>
<stop offset="1" stop-color="#6F788A"/>
</linearGradient>
<linearGradient id="paint1_linear_1_97" x1="148" y1="0" x2="148" y2="38" gradientUnits="userSpaceOnUse">
<stop offset="0.0729167" stop-color="white"/>
<stop offset="1" stop-color="#6F788A"/>
</linearGradient>
<linearGradient id="paint2_linear_1_97" x1="148" y1="0" x2="148" y2="38" gradientUnits="userSpaceOnUse">
<stop offset="0.0729167" stop-color="white"/>
<stop offset="1" stop-color="#6F788A"/>
</linearGradient>
<linearGradient id="paint3_linear_1_97" x1="148" y1="0" x2="148" y2="38" gradientUnits="userSpaceOnUse">
<stop offset="0.0729167" stop-color="white"/>
<stop offset="1" stop-color="#6F788A"/>
</linearGradient>
<linearGradient id="paint4_linear_1_97" x1="148" y1="0" x2="148" y2="38" gradientUnits="userSpaceOnUse">
<stop offset="0.0729167" stop-color="white"/>
<stop offset="1" stop-color="#6F788A"/>
</linearGradient>
<linearGradient id="paint5_linear_1_97" x1="-50.3712" y1="-8.02222" x2="-34.728" y2="77.0193" gradientUnits="userSpaceOnUse">
<stop offset="0.0760203" stop-color="#1C4FD6"/>
<stop offset="1" stop-color="#0697E9"/>
</linearGradient>
<linearGradient id="paint6_linear_1_97" x1="-50.3712" y1="-8.02222" x2="-34.728" y2="77.0193" gradientUnits="userSpaceOnUse">
<stop offset="0.0760203" stop-color="#1C4FD6"/>
<stop offset="1" stop-color="#0697E9"/>
</linearGradient>
<linearGradient id="paint7_linear_1_97" x1="-50.3712" y1="-8.02222" x2="-34.728" y2="77.0193" gradientUnits="userSpaceOnUse">
<stop offset="0.0760203" stop-color="#1C4FD6"/>
<stop offset="1" stop-color="#0697E9"/>
</linearGradient>
<linearGradient id="paint8_linear_1_97" x1="-50.3712" y1="-8.02222" x2="-34.728" y2="77.0193" gradientUnits="userSpaceOnUse">
<stop offset="0.0760203" stop-color="#1C4FD6"/>
<stop offset="1" stop-color="#0697E9"/>
</linearGradient>
</defs>
</svg>
