<svg width="34" height="34" viewBox="0 0 34 34" fill="none" xmlns="http://www.w3.org/2000/svg">
<path d="M33.8979 31.5561L22.8607 20.5189C24.5734 18.3047 25.4999 15.5974 25.4999 12.7499C25.4999 9.34146 24.1696 6.14547 21.7642 3.73573C19.3587 1.32599 16.1542 0 12.7499 0C9.34571 0 6.14122 1.33024 3.73573 3.73573C1.32599 6.14122 0 9.34146 0 12.7499C0 16.1542 1.33024 19.3587 3.73573 21.7642C6.14122 24.1739 9.34146 25.4999 12.7499 25.4999C15.5974 25.4999 18.3004 24.5734 20.5147 22.8649L31.5519 33.8979C31.5842 33.9302 31.6227 33.9559 31.6649 33.9734C31.7072 33.991 31.7526 34 31.7984 34C31.8441 34 31.8895 33.991 31.9318 33.9734C31.9741 33.9559 32.0125 33.9302 32.0449 33.8979L33.8979 32.0491C33.9302 32.0167 33.9559 31.9783 33.9734 31.936C33.991 31.8937 34 31.8484 34 31.8026C34 31.7568 33.991 31.7115 33.9734 31.6692C33.9559 31.6269 33.9302 31.5885 33.8979 31.5561ZM19.4819 19.4819C17.6799 21.2797 15.2914 22.2699 12.7499 22.2699C10.2085 22.2699 7.81997 21.2797 6.01797 19.4819C4.22023 17.6799 3.22999 15.2914 3.22999 12.7499C3.22999 10.2085 4.22023 7.81572 6.01797 6.01797C7.81997 4.22023 10.2085 3.22999 12.7499 3.22999C15.2914 3.22999 17.6842 4.21598 19.4819 6.01797C21.2797 7.81997 22.2699 10.2085 22.2699 12.7499C22.2699 15.2914 21.2797 17.6842 19.4819 19.4819Z" fill="white"/>
<path d="M11.495 17.22C11.495 16.705 11.495 16.2075 11.495 15.7275C11.495 15.2475 11.495 14.795 11.495 14.37V12.5175C11.495 12.0925 11.495 11.64 11.495 11.16C11.495 10.68 11.495 10.1825 11.495 9.6675H13.49C13.49 10.1825 13.49 10.68 13.49 11.16C13.49 11.64 13.49 12.0925 13.49 12.5175V14.37C13.49 14.795 13.49 15.2475 13.49 15.7275C13.49 16.2075 13.49 16.705 13.49 17.22H11.495ZM8.7725 14.415V12.4725C9.2875 12.4725 9.785 12.4725 10.265 12.4725C10.745 12.4725 11.195 12.4725 11.615 12.4725H13.3625C13.7875 12.4725 14.24 12.4725 14.72 12.4725C15.2 12.4725 15.6975 12.4725 16.2125 12.4725V14.415C15.6975 14.415 15.2 14.415 14.72 14.415C14.24 14.415 13.7875 14.415 13.3625 14.415H11.615C11.195 14.415 10.745 14.415 10.265 14.415C9.785 14.415 9.2875 14.415 8.7725 14.415Z" fill="white"/>
</svg>
