<svg width="67" height="52" viewBox="0 0 67 52" fill="none" xmlns="http://www.w3.org/2000/svg">
<g clip-path="url(#clip0_1_2577)">
<path d="M12.1435 52.1773V48.7263C12.1435 47.4062 11.3389 46.5418 9.95755 46.5418C9.2669 46.5418 8.5159 46.7696 7.99958 47.5201C7.59726 46.8902 7.0206 46.5418 6.15561 46.5418C5.57895 46.5418 5.00229 46.716 4.54632 47.3459V46.6557H3.33936V52.1773H4.54632V49.1284C4.54632 48.15 5.06263 47.6877 5.86728 47.6877C6.67192 47.6877 7.07424 48.2036 7.07424 49.1284V52.1773H8.28121V49.1284C8.28121 48.15 8.85787 47.6877 9.60216 47.6877C10.4068 47.6877 10.8091 48.2036 10.8091 49.1284V52.1773H12.1435ZM30.0468 46.6557H28.0889V44.9872H26.8819V46.6557H25.7889V47.748H26.8819V50.281C26.8819 51.5474 27.3982 52.2912 28.7795 52.2912C29.2958 52.2912 29.8725 52.117 30.2748 51.8892L29.9261 50.8505C29.5774 51.0784 29.1751 51.1387 28.8868 51.1387C28.3101 51.1387 28.0821 50.7902 28.0821 50.2206V47.748H30.0401V46.6557H30.0468ZM40.2926 46.5351C39.602 46.5351 39.1393 46.8835 38.851 47.3392V46.649H37.644V52.1706H38.851V49.0614C38.851 48.1433 39.2533 47.6207 40.0043 47.6207C40.2323 47.6207 40.5206 47.681 40.7553 47.7346L41.104 46.582C40.8626 46.5351 40.5206 46.5351 40.2926 46.5351ZM24.8099 47.1114C24.2333 46.7093 23.4286 46.5351 22.5636 46.5351C21.1823 46.5351 20.2637 47.2253 20.2637 48.3176C20.2637 49.2356 20.9543 49.7583 22.1613 49.9258L22.738 49.9861C23.3683 50.1 23.717 50.2743 23.717 50.5624C23.717 50.9645 23.2543 51.2526 22.4496 51.2526C21.645 51.2526 21.008 50.9645 20.6057 50.6763L20.029 51.5943C20.6593 52.0567 21.5243 52.2845 22.3893 52.2845C23.9986 52.2845 24.9239 51.534 24.9239 50.5021C24.9239 49.5237 24.1729 49.0078 23.0263 48.8335L22.4496 48.7732C21.9333 48.7129 21.531 48.599 21.531 48.2573C21.531 47.8552 21.9333 47.6274 22.5703 47.6274C23.261 47.6274 23.9516 47.9155 24.3003 48.0897L24.8099 47.1114ZM56.9219 46.5351C56.2313 46.5351 55.7686 46.8835 55.4803 47.3392V46.649H54.2733V52.1706H55.4803V49.0614C55.4803 48.1433 55.8826 47.6207 56.6336 47.6207C56.8616 47.6207 57.1499 47.681 57.3846 47.7346L57.7333 46.5954C57.4986 46.5351 57.1566 46.5351 56.9219 46.5351ZM41.4996 49.4165C41.4996 51.0851 42.6529 52.2912 44.4365 52.2912C45.2412 52.2912 45.8178 52.117 46.3945 51.6614L45.8178 50.683C45.3552 51.0315 44.8992 51.199 44.3762 51.199C43.3972 51.199 42.7066 50.5088 42.7066 49.4165C42.7066 48.3779 43.3972 47.6877 44.3762 47.6341C44.8925 47.6341 45.3552 47.8083 45.8178 48.15L46.3945 47.1717C45.8178 46.7093 45.2412 46.5418 44.4365 46.5418C42.6529 46.5351 41.4996 47.748 41.4996 49.4165ZM52.664 49.4165V46.6557H51.4571V47.3459C51.0547 46.8299 50.4781 46.5418 49.7271 46.5418C48.1714 46.5418 46.9645 47.748 46.9645 49.4165C46.9645 51.0851 48.1714 52.2912 49.7271 52.2912C50.5317 52.2912 51.1084 52.0031 51.4571 51.4871V52.1773H52.664V49.4165ZM48.2318 49.4165C48.2318 48.4382 48.8621 47.6341 49.9014 47.6341C50.8804 47.6341 51.571 48.3846 51.571 49.4165C51.571 50.3949 50.8804 51.199 49.9014 51.199C48.8688 51.1387 48.2318 50.3882 48.2318 49.4165ZM33.7884 46.5351C32.1791 46.5351 31.0258 47.6877 31.0258 49.4098C31.0258 51.1387 32.1791 52.2845 33.8488 52.2845C34.6534 52.2845 35.458 52.0567 36.0951 51.534L35.5184 50.6696C35.0557 51.0181 34.4791 51.2459 33.9091 51.2459C33.1581 51.2459 32.4138 50.8974 32.2395 49.9258H36.323C36.323 49.7516 36.323 49.6377 36.323 49.4634C36.3767 47.6877 35.3374 46.5351 33.7884 46.5351ZM33.7884 47.5737C34.5394 47.5737 35.0557 48.0361 35.1697 48.8938H32.2931C32.4071 48.15 32.9234 47.5737 33.7884 47.5737ZM63.7748 49.4165V44.4712H62.5678V47.3459C62.1655 46.8299 61.5889 46.5418 60.8378 46.5418C59.2822 46.5418 58.0752 47.748 58.0752 49.4165C58.0752 51.0851 59.2822 52.2912 60.8378 52.2912C61.6425 52.2912 62.2192 52.0031 62.5678 51.4871V52.1773H63.7748V49.4165ZM59.3426 49.4165C59.3426 48.4382 59.9729 47.6341 61.0122 47.6341C61.9912 47.6341 62.6818 48.3846 62.6818 49.4165C62.6818 50.3949 61.9912 51.199 61.0122 51.199C59.9729 51.1387 59.3426 50.3882 59.3426 49.4165ZM18.936 49.4165V46.6557H17.7291V47.3459C17.3267 46.8299 16.7501 46.5418 15.9991 46.5418C14.4434 46.5418 13.2365 47.748 13.2365 49.4165C13.2365 51.0851 14.4434 52.2912 15.9991 52.2912C16.8037 52.2912 17.3804 52.0031 17.7291 51.4871V52.1773H18.936V49.4165ZM14.4501 49.4165C14.4501 48.4382 15.0804 47.6341 16.1198 47.6341C17.0988 47.6341 17.7894 48.3846 17.7894 49.4165C17.7894 50.3949 17.0988 51.199 16.1198 51.199C15.0804 51.1387 14.4501 50.3882 14.4501 49.4165Z" fill="white"/>
<path d="M42.539 4.42944H24.4077V36.9831H42.539V4.42944Z" fill="#FF5A00"/>
<path d="M25.6145 20.7062C25.6145 14.0923 28.7258 8.22216 33.5 4.42938C29.9864 1.66856 25.5541 0 20.7196 0C9.26681 0 0 9.26082 0 20.7062C0 32.1515 9.26681 41.4124 20.7196 41.4124C25.5541 41.4124 29.9864 39.7438 33.5 36.983C28.7191 33.2438 25.6145 27.3201 25.6145 20.7062Z" fill="#EB001B"/>
<path d="M67 20.7062C67 32.1515 57.7332 41.4124 46.2804 41.4124C41.4459 41.4124 37.0136 39.7438 33.5 36.983C38.3346 33.1835 41.3855 27.3201 41.3855 20.7062C41.3855 14.0923 38.2742 8.22216 33.5 4.42938C37.0069 1.66856 41.4391 0 46.2737 0C57.7332 0 67 9.32113 67 20.7062Z" fill="#F79E1B"/>
</g>
<defs>
<clipPath id="clip0_1_2577">
<rect width="67" height="52" fill="white"/>
</clipPath>
</defs>
</svg>
