<svg width="93" height="27" viewBox="0 0 93 27" fill="none" xmlns="http://www.w3.org/2000/svg">
<g clip-path="url(#clip0_1_2565)">
<path fill-rule="evenodd" clip-rule="evenodd" d="M25.0606 -7.12854e-06V0.0114885C25.0491 0.0114885 21.4279 -7.19087e-06 20.4623 3.46019C19.5771 6.633 17.0826 15.3927 17.0136 15.6341H16.3239C16.3239 15.6341 13.7718 6.67898 12.8752 3.4487C11.9095 -0.0115029 8.27689 -7.12854e-06 8.27689 -7.12854e-06H0V26.3251H8.27689V10.691H8.62176H8.96663L13.7948 26.3251H19.5426L24.3708 10.7025H25.0606V26.3251H33.3375V-7.12854e-06H25.0606Z" fill="#4DB45E"/>
<path fill-rule="evenodd" clip-rule="evenodd" d="M55.294 -7.62939e-05C55.294 -7.62939e-05 52.8684 0.218341 51.7303 2.75889L45.8675 15.634H45.1778V-7.62939e-05H36.9009V26.325H44.7179C44.7179 26.325 47.2585 26.0951 48.3966 23.5661L54.1444 10.6909H54.8341V26.325H63.111V-7.62939e-05H55.294Z" fill="#4DB45E"/>
<path fill-rule="evenodd" clip-rule="evenodd" d="M66.79 11.9554V26.325H75.0669V17.9332H84.0336C87.9421 17.9332 91.2528 15.4386 92.4829 11.9554H66.79Z" fill="#4DB45E"/>
<path fill-rule="evenodd" clip-rule="evenodd" d="M84.0335 -7.62939e-05H65.6289C66.5486 5.01204 70.3076 9.03552 75.1703 10.346C76.2739 10.6449 77.435 10.8059 78.6305 10.8059H92.8162C92.9426 10.2081 93.0001 9.59881 93.0001 8.96655C93.0001 4.01191 88.9881 -7.62939e-05 84.0335 -7.62939e-05Z" fill="url(#paint0_linear_1_2565)"/>
</g>
<defs>
<linearGradient id="paint0_linear_1_2565" x1="65.6311" y1="5.40289" x2="93.0001" y2="5.40289" gradientUnits="userSpaceOnUse">
<stop offset="0.3" stop-color="#00B4E6"/>
<stop offset="1" stop-color="#088CCB"/>
</linearGradient>
<clipPath id="clip0_1_2565">
<rect width="93" height="26.3251" fill="white"/>
</clipPath>
</defs>
</svg>
