<svg width="99" height="45" viewBox="0 0 99 45" fill="none" xmlns="http://www.w3.org/2000/svg">
<path d="M48.5166 25.4509H50.0551V28.9012H51.1667L53.1613 25.4509H54.8433L52.4492 29.5003V29.5287L54.9859 33.9478H53.2472L51.195 30.2404H50.0843V33.9478H48.5449V25.45H48.5166V25.4509ZM58.434 27.7038C60.2851 27.7038 61.7961 29.0439 61.7961 30.8972C61.7961 32.7796 60.3143 34.0914 58.4623 34.0914C56.6094 34.0914 55.1276 32.7796 55.1276 30.8972C55.0992 29.0155 56.581 27.7038 58.434 27.7038ZM62.9927 27.8456H64.4462V32.6369H66.3558V27.8465H67.8084V32.6369H69.718V27.8465H71.1714V33.9478H63.0494V27.8456H62.9927ZM75.4751 27.7038C77.2129 27.7038 78.1819 28.9872 78.1819 30.5843C78.1771 30.7848 78.1582 30.9847 78.1252 31.1825H73.9358C74.0217 32.2372 74.848 32.808 75.7603 32.808C76.3865 32.808 77.0136 32.5226 77.4981 32.1521L78.0968 33.2361C77.4698 33.7767 76.5291 34.1197 75.6461 34.1197C73.6222 34.1197 72.3689 32.6653 72.3689 30.9255C72.3689 29.0155 73.6506 27.7038 75.4751 27.7038ZM78.894 32.6653C79.6353 32.551 80.1765 31.9244 80.1765 29.7565V27.8465H84.6228V33.9478H83.1118V29.0714H81.63V29.7556C81.63 32.4074 80.9179 33.9478 78.894 34.0045V32.6644V32.6653ZM88.9539 27.7038C90.6917 27.7038 91.6607 28.9872 91.6607 30.5843C91.6559 30.7848 91.637 30.9847 91.604 31.1825H87.4146C87.5005 32.2372 88.3269 32.808 89.2392 32.808C89.8654 32.808 90.4924 32.5226 90.9769 32.1521L91.5757 33.2361C90.9486 33.7767 90.0079 34.1197 89.1249 34.1197C87.1019 34.1197 85.8477 32.6653 85.8477 30.9255C85.8477 29.0155 87.1303 27.7038 88.9539 27.7038ZM92.9149 27.8456H94.425V30.1846H95.1664L96.6482 27.8465H98.3293L96.3913 30.7545V30.7837L98.5569 33.9478H96.7908L95.1947 31.4679H94.3976V33.9478H92.8856V27.8456H92.914H92.9149ZM58.434 32.7796C59.4313 32.7796 60.2577 32.0094 60.2577 30.8688C60.2577 29.7565 59.4313 28.9579 58.4331 28.9579C57.4366 28.9579 56.6386 29.729 56.6386 30.8688C56.6386 32.0094 57.4358 32.7796 58.434 32.7796ZM76.6434 30.1278C76.6434 29.3293 76.1013 28.8445 75.4176 28.8445C74.6488 28.8445 74.0784 29.3577 73.9358 30.1278H76.6434ZM90.1222 30.1278C90.1222 29.3293 89.581 28.8445 88.8973 28.8445C88.1267 28.8445 87.5572 29.3577 87.4146 30.1278H90.1222Z" fill="white"/>
<path d="M69.8037 6.94412V21.3446C69.8049 21.3974 69.7954 21.4498 69.7758 21.4987C69.7562 21.5476 69.7269 21.5921 69.6896 21.6294C69.6524 21.6666 69.608 21.696 69.5591 21.7156C69.5101 21.7352 69.4578 21.7447 69.4051 21.7435H66.4698C66.4172 21.7447 66.3648 21.7352 66.3159 21.7156C66.267 21.696 66.2226 21.6666 66.1853 21.6294C66.1481 21.5921 66.1187 21.5476 66.0991 21.4987C66.0795 21.4498 66.0701 21.3974 66.0713 21.3446V6.94412C66.0701 6.89142 66.0795 6.83901 66.0991 6.79007C66.1187 6.74114 66.1481 6.69668 66.1853 6.65941C66.2226 6.62213 66.267 6.59279 66.3159 6.57318C66.3648 6.55356 66.4172 6.54408 66.4698 6.54529H69.4051C69.4578 6.54408 69.5101 6.55356 69.5591 6.57318C69.608 6.59279 69.6524 6.62213 69.6896 6.65941C69.7269 6.69668 69.7562 6.74114 69.7758 6.79007C69.7954 6.83901 69.8049 6.89142 69.8037 6.94412ZM92.7154 6.54529C92.8296 6.54529 92.9722 6.60201 93.1139 6.71634C93.1999 6.80143 93.1999 6.94412 93.1715 7.05845L88.3266 21.4873C88.2972 21.562 88.2464 21.6263 88.1805 21.672C88.1146 21.7178 88.0366 21.7429 87.9564 21.7444H85.3347C85.1638 21.7444 85.0212 21.6584 84.9645 21.4873L82.1417 13.0755L79.3207 21.4865C79.2913 21.5611 79.2404 21.6254 79.1745 21.6711C79.1086 21.7169 79.0306 21.7421 78.9505 21.7435H76.3287C76.1578 21.7435 76.0152 21.6584 75.9585 21.4865L71.1136 7.05757C71.0853 6.94412 71.0853 6.82979 71.1703 6.71634C71.2279 6.60201 71.3705 6.54529 71.4839 6.54529H74.761C74.932 6.54529 75.0746 6.65874 75.1321 6.82979L77.7246 15.356L80.5749 6.82979C80.6043 6.75512 80.6551 6.69085 80.721 6.64511C80.7869 6.59936 80.8649 6.57418 80.9451 6.57276H83.2533C83.4242 6.57276 83.5668 6.65874 83.6235 6.82979L86.4737 15.356L89.0671 6.82979C89.0904 6.74902 89.1389 6.67782 89.2055 6.62663C89.2721 6.57543 89.3534 6.54693 89.4373 6.54529H92.7145H92.7154ZM97.6736 6.54529C97.8729 6.54529 98.0438 6.71634 98.0722 6.94412V21.3446C98.0734 21.3974 98.0639 21.4498 98.0443 21.4987C98.0247 21.5476 97.9954 21.5921 97.9581 21.6294C97.9209 21.6666 97.8765 21.696 97.8276 21.7156C97.7786 21.7352 97.7263 21.7447 97.6736 21.7435H94.7383C94.6857 21.7447 94.6333 21.7352 94.5844 21.7156C94.5355 21.696 94.4911 21.6666 94.4538 21.6294C94.4166 21.5921 94.3872 21.5476 94.3676 21.4987C94.348 21.4498 94.3386 21.3974 94.3398 21.3446V6.94412C94.3386 6.89142 94.348 6.83901 94.3676 6.79007C94.3872 6.74114 94.4166 6.69668 94.4538 6.65941C94.4911 6.62213 94.5355 6.59279 94.5844 6.57318C94.6333 6.55356 94.6857 6.54408 94.7383 6.54529H97.6736ZM64.3609 21.2312C64.5319 21.4306 64.3893 21.7151 64.1324 21.7151H60.5417C60.471 21.717 60.4008 21.7026 60.3366 21.6729C60.2724 21.6433 60.2159 21.5992 60.1715 21.5441L59.5737 20.8031C58.3195 21.6008 56.8368 22.0865 55.27 22.0865C50.8821 22.0865 47.3198 18.5218 47.3198 14.1302C47.3198 9.73861 50.8821 6.17393 55.27 6.17393C59.6587 6.17393 63.221 9.73861 63.221 14.1302C63.221 15.6989 62.7649 17.1817 61.9669 18.4358L64.3609 21.2303V21.2312ZM34.3529 28.217C35.0942 28.5024 35.3794 29.6138 35.4361 30.0986C35.5504 30.9831 35.2944 31.3252 35.0092 31.3252C34.724 31.3252 34.3246 30.9831 33.8976 30.2989C33.4698 29.6138 33.2989 28.8445 33.5274 28.4448C33.6691 28.1877 33.9827 28.0743 34.3538 28.217H34.3529ZM30.0217 31.4396C30.4779 31.4396 30.9907 31.639 31.4469 32.0378C32.3299 32.7796 32.5868 33.6349 32.1306 34.2624C31.8738 34.5762 31.4469 34.7756 30.9624 34.7756C30.4779 34.7756 29.9651 34.6045 29.6232 34.2908C28.8251 33.6065 28.5975 32.465 29.1095 31.8384C29.3096 31.5814 29.6232 31.4396 30.0217 31.4396ZM20.0486 39.6803C9.21894 39.6803 0.442383 30.8971 0.442383 20.0613C0.442383 9.22545 9.21983 0.443146 20.0477 0.443146C30.8765 0.443146 39.6539 9.22633 39.6539 20.0613C39.6539 23.7394 38.6282 27.1907 36.8905 30.1278C36.8329 30.2129 36.6903 30.1846 36.662 30.0702C35.9782 25.2514 33.0429 22.5988 28.7685 21.8011C28.3973 21.7435 28.3407 21.5157 28.8251 21.459C30.136 21.3446 31.988 21.373 32.957 21.5441C33.0137 21.0593 33.0429 20.5461 33.0429 20.0329C33.0429 12.8752 27.2291 7.05757 20.076 7.05757C12.9239 7.05757 7.11005 12.8752 7.11005 20.0329C7.11005 27.1907 12.9239 33.0083 20.0769 33.0083H20.6748C20.4717 31.8506 20.3856 30.6753 20.4179 29.5003C20.4472 28.7018 20.6181 28.5875 20.96 29.215C22.7553 32.3232 25.3204 35.1177 30.3353 36.23C34.4388 37.1429 38.5423 38.1976 42.9594 43.8149C43.358 44.2997 42.7601 44.8129 42.304 44.414C37.8019 40.4213 33.6983 39.1096 29.9651 39.1096C25.7756 39.1388 22.9263 39.6803 20.0477 39.6803H20.0486ZM57.2363 18.037L55.6685 16.1261C55.4985 15.9267 55.6411 15.613 55.897 15.613H59.2025C59.3735 15.1565 59.4594 14.6434 59.4594 14.1302C59.4594 11.7638 57.6924 9.71025 55.27 9.71025C52.8484 9.71025 51.0805 11.7638 51.0805 14.1302C51.0805 16.4966 52.8484 18.5218 55.27 18.5218C55.9537 18.5502 56.6384 18.3507 57.2363 18.037Z" fill="#FF8C00"/>
</svg>
