<svg width="20" height="20" viewBox="0 0 20 20" fill="none" xmlns="http://www.w3.org/2000/svg">
<path fill-rule="evenodd" clip-rule="evenodd" d="M10 20C4.47715 20 0 15.5228 0 10C0 4.47715 4.47715 0 10 0C15.5228 0 20 4.47715 20 10C20 15.5228 15.5228 20 10 20ZM10 18.1818C14.5187 18.1818 18.1818 14.5187 18.1818 10C18.1818 5.48131 14.5187 1.81818 10 1.81818C5.48132 1.81818 1.8182 5.48131 1.8182 10C1.8182 14.5187 5.48132 18.1818 10 18.1818ZM12.9936 6.6299L8.18184 11.4416L6.09739 9.35717L4.81174 10.6428L8.18184 14.0129L14.2792 7.91555L12.9936 6.6299Z" fill="#070F23"/>
</svg>
