<svg width="102" height="46" viewBox="0 0 102 46" fill="none" xmlns="http://www.w3.org/2000/svg">
<path d="M38.3413 35.5422L42.7037 9.9009H49.6812L45.3156 35.5422H38.3413ZM70.5249 10.4537C69.1428 9.93417 66.9765 9.37671 64.2714 9.37671C57.3765 9.37671 52.5201 12.8544 52.4785 17.8387C52.4397 21.5232 55.9459 23.5787 58.5925 24.8051C61.3087 26.0623 62.2216 26.8636 62.2085 27.9857C62.1912 29.7046 60.0396 30.4895 58.0339 30.4895C55.2413 30.4895 53.7576 30.1009 51.466 29.1439L50.5666 28.7364L49.5875 34.4763C51.2173 35.1924 54.2308 35.8122 57.3601 35.8445C64.695 35.8445 69.4566 32.4064 69.5107 27.0837C69.5367 24.1667 67.6778 21.9472 63.6521 20.1169C61.2133 18.9307 59.7196 18.1392 59.7354 16.9381C59.7354 15.8723 60.9997 14.7326 63.7317 14.7326C66.0131 14.6971 67.6663 15.1955 68.9541 15.715L69.5793 16.0109L70.5249 10.4537ZM88.4809 9.90051H83.0892C81.4191 9.90051 80.1689 10.3571 79.4356 12.0269L69.0728 35.5253H76.3999C76.3999 35.5253 77.5976 32.3658 77.8685 31.672C78.6692 31.672 85.7873 31.683 86.8048 31.683C87.0135 32.5808 87.6537 35.5253 87.6537 35.5253H94.1284L88.4809 9.89972V9.90051ZM79.9263 26.4581C80.5035 24.9807 82.7065 19.2902 82.7065 19.2902C82.6654 19.3584 83.2794 17.8056 83.6315 16.8429L84.1031 19.0536C84.1031 19.0536 85.4392 25.1743 85.7185 26.4577H79.9263V26.4581ZM32.4179 9.90051L25.5866 27.3868L24.8589 23.8333C23.587 19.7369 19.6249 15.2988 15.1953 13.077L21.4418 35.5013L28.8243 35.493L39.8095 9.90025L32.4179 9.90012" fill="#3C7BD7"/>
<path d="M19.2128 9.89957H7.96126L7.87207 10.4331C16.6256 12.5555 22.4175 17.6847 24.8224 23.8483L22.3758 12.0651C21.9536 10.4414 20.7285 9.9568 19.213 9.90022" fill="#F2AE14"/>
</svg>
