<svg width="98" height="24" viewBox="0 0 98 24" fill="none" xmlns="http://www.w3.org/2000/svg">
<path d="M5.48784 12.3392L2.80818 18.3644H0.850586L3.795 11.922C3.10503 11.569 2.55145 11.0555 2.12623 10.3735C1.70102 9.69159 1.49242 8.76895 1.49242 7.58958C1.49242 6.77124 1.61276 6.04918 1.85345 5.42339C2.09414 4.7976 2.42308 4.28414 2.84027 3.87497C3.25746 3.4658 3.74686 3.15291 4.30044 2.95233C4.85402 2.74374 5.44772 2.64746 6.05746 2.64746H8.58468V18.3724H6.89185V12.3472H5.48784V12.3392ZM6.89185 4.05147H5.99328C5.65632 4.05147 5.32738 4.11566 5.00646 4.236C4.68554 4.36437 4.39672 4.55692 4.14801 4.8297C3.8993 5.10248 3.69872 5.46351 3.54629 5.91279C3.39385 6.36207 3.31362 6.91566 3.31362 7.58156C3.31362 8.21537 3.38583 8.74488 3.52222 9.1701C3.65861 9.59531 3.85116 9.9403 4.09185 10.2051C4.33254 10.4698 4.62136 10.6543 4.9503 10.7667C5.27924 10.879 5.62423 10.9351 5.99328 10.9351H6.89185V4.05147Z" fill="#EE2E24"/>
<path d="M16.7442 7.28473V18.3644H15.0514V13.3982H12.5001V18.3644H10.7832V7.28473H12.5001V11.9942H15.0514V7.28473H16.7442ZM25.5614 20.5386H24.021V18.3644H19.2715V20.5386H17.7311V16.9523H18.413C18.6617 16.3667 18.8623 15.7168 19.0067 15.0028C19.1511 14.2887 19.2634 13.5587 19.3437 12.8045C19.4239 12.0503 19.472 11.2801 19.4961 10.4939C19.5202 9.70765 19.5282 8.95349 19.5282 8.21538V7.28473H24.6709V16.9604H25.5534V20.5386H25.5614ZM22.9861 8.68874H21.0766V8.88931C21.0766 9.47498 21.0686 10.1168 21.0445 10.8068C21.0205 11.5048 20.9723 12.2108 20.9001 12.9248C20.8279 13.6389 20.7236 14.3449 20.5952 15.0429C20.4669 15.7409 20.2823 16.3747 20.0417 16.9604H22.9861V8.68874ZM33.0147 17.6183C32.6617 17.8991 32.2606 18.1157 31.8033 18.2761C31.346 18.4366 30.8405 18.5168 30.2869 18.5168C29.1397 18.5168 28.2411 18.0756 27.5832 17.185C26.9253 16.2945 26.5964 14.9948 26.5964 13.2859C26.5964 12.3953 26.6606 11.569 26.7809 10.8228C26.9093 10.0767 27.1018 9.42685 27.3746 8.87326C27.6474 8.31968 27.9924 7.89447 28.4176 7.5896C28.8428 7.28473 29.3482 7.12427 29.9339 7.12427C30.3912 7.12427 30.8084 7.21252 31.1855 7.39705C31.5626 7.58157 31.8915 7.87842 32.1563 8.28759C32.421 8.69676 32.6216 9.22627 32.774 9.88415C32.9184 10.534 32.9907 11.3283 32.9907 12.267V13.2137H28.3695C28.3695 14.4733 28.5379 15.428 28.8829 16.0698C29.2279 16.7117 29.7414 17.0406 30.4313 17.0406C30.9127 17.0406 31.346 16.9604 31.715 16.7839C32.0921 16.6154 32.3889 16.4469 32.6056 16.2864L33.0147 17.6183ZM29.9339 8.5363C29.4044 8.5363 29.0354 8.83315 28.8107 9.42685C28.5861 10.0205 28.4497 10.8148 28.3935 11.8097H31.2336C31.2336 11.3443 31.2096 10.9031 31.1695 10.5019C31.1293 10.1008 31.0571 9.74776 30.9609 9.45894C30.8646 9.16209 30.7362 8.93745 30.5677 8.77699C30.3993 8.61653 30.1826 8.5363 29.9339 8.5363ZM36.4646 12.8446V18.3644H34.7477V7.28473H36.4646V12.4114L39.1282 7.28473H40.8692L38.1173 12.4996L41.2623 18.3724H39.3929L36.4646 12.8446ZM45.2818 18.5168C44.0944 18.5168 43.1637 18.0435 42.4898 17.0968C41.8159 16.1501 41.4789 14.722 41.4789 12.8205C41.4789 11.9541 41.5591 11.1678 41.7356 10.4698C41.9041 9.76381 42.1528 9.17011 42.4818 8.68071C42.8107 8.19132 43.2199 7.80622 43.7093 7.53344C44.1987 7.26066 44.7683 7.12427 45.4101 7.12427C45.9076 7.12427 46.3087 7.18043 46.6216 7.29275C46.9265 7.40507 47.2073 7.54146 47.456 7.70192L47.2153 9.33057C46.9826 9.12198 46.7018 8.93745 46.3889 8.77699C46.076 8.61653 45.7391 8.5363 45.3861 8.5363C44.7683 8.5363 44.2629 8.88129 43.8697 9.57928C43.4766 10.2693 43.276 11.3283 43.276 12.7403C43.276 14.1363 43.4445 15.2194 43.7735 15.9816C44.1024 16.7438 44.6239 17.1208 45.3219 17.1208C45.7471 17.1208 46.1162 17.0486 46.421 16.9042C46.7259 16.7598 46.9826 16.5993 47.1912 16.4148L47.5844 17.6905C47.2875 17.9392 46.9586 18.1397 46.5975 18.2922C46.2365 18.4446 45.7952 18.5168 45.2818 18.5168Z" fill="white"/>
<path d="M59.2499 18.3643H52.5187L52.3663 20.9798H51.5078V17.4898H51.9731C52.3502 17.1689 52.6471 16.5913 52.8557 15.7729C53.0643 14.9546 53.2247 13.9758 53.337 12.8446C53.4574 11.6732 53.5376 10.2291 53.5777 8.52021C53.6178 6.81133 53.658 4.85374 53.69 2.65546H59.1858V17.4979H60.2608V20.9959H59.4024L59.2499 18.3643ZM58.0786 3.52193H54.6688C54.6368 5.53569 54.5966 7.30875 54.5405 8.82508C54.4843 10.3494 54.4121 11.6812 54.3239 12.8285C54.2196 14.0239 54.0751 15.0027 53.8986 15.7729C53.7141 16.5431 53.4734 17.1128 53.1846 17.4818H58.0866V3.52193H58.0786Z" fill="white"/>
<path d="M62.3701 12.997C62.4021 14.5294 62.6107 15.6927 63.0039 16.495C63.397 17.2973 63.9987 17.6984 64.809 17.6984C65.1781 17.6984 65.499 17.6423 65.7798 17.5219C66.0606 17.4016 66.2933 17.2572 66.4858 17.0967C66.7024 16.9362 66.895 16.7276 67.0554 16.495L67.3844 17.3294C67.2079 17.5781 66.9993 17.7947 66.7506 17.9632C66.5339 18.1236 66.2612 18.268 65.9403 18.3884C65.6193 18.5087 65.2342 18.5729 64.793 18.5729C63.6216 18.5729 62.7552 18.0675 62.2016 17.0566C61.648 16.0457 61.3672 14.6337 61.3672 12.8125C61.3672 11.9059 61.4474 11.0956 61.6079 10.3815C61.7683 9.66747 61.993 9.06576 62.2818 8.56833C62.5706 8.07091 62.9076 7.69384 63.3007 7.4371C63.6938 7.18037 64.1271 7.052 64.6004 7.052C65.0818 7.052 65.515 7.18037 65.9001 7.42908C66.2772 7.67779 66.5981 8.05487 66.8468 8.55229C67.0956 9.04971 67.2721 9.66747 67.3764 10.4136C67.4807 11.1517 67.4887 12.0182 67.4004 12.997H62.3701ZM64.5924 7.94255C64.0067 7.94255 63.5013 8.30358 63.0841 9.02564C62.6669 9.7477 62.4342 10.7987 62.3941 12.1867H66.4216C66.5099 10.7105 66.3655 9.63538 65.9964 8.96146C65.6274 8.28753 65.146 7.94255 64.5924 7.94255Z" fill="white"/>
<path d="M74.1565 13.0692H70.3777V18.3724H69.3428V7.28469H70.3777V12.1867H74.1565V7.28469H75.1915V18.3643H74.1565V13.0692Z" fill="white"/>
<path d="M77.6299 7.28467H78.6648V11.3924H79.4752C80.5342 11.3924 81.3766 11.6812 82.0024 12.2509C82.6362 12.8205 82.9491 13.687 82.9491 14.8423C82.9491 16.0136 82.6201 16.8961 81.9623 17.4818C81.3044 18.0675 80.454 18.3643 79.411 18.3643H77.6299V7.28467ZM78.6648 12.2107V17.554H79.3227C80.1009 17.554 80.7267 17.3454 81.2161 16.9282C81.7055 16.511 81.9382 15.8291 81.9382 14.8744C81.9382 13.9357 81.7216 13.2617 81.2803 12.8365C80.8391 12.4193 80.2213 12.2107 79.435 12.2107H78.6648Z" fill="white"/>
<path d="M85.7414 8.15917V18.3643H84.7305V7.28467H89.4159V8.16719H85.7414V8.15917Z" fill="white"/>
<path d="M96.1628 10.6463C96.1628 10.3495 96.1709 10.0847 96.1869 9.84403C96.203 9.60334 96.227 9.36266 96.2511 9.12999H96.1869C96.1147 9.3787 96.0264 9.61939 95.9222 9.84403C95.8179 10.0687 95.7055 10.3094 95.5932 10.5581L91.9909 18.3644H91.1084V7.28472H92.0792V14.9787C92.0792 15.2755 92.0712 15.5403 92.0551 15.789C92.0391 16.0377 92.015 16.2864 91.9909 16.5351H92.0551C92.1273 16.2864 92.2156 16.0377 92.3199 15.797C92.4242 15.5564 92.5285 15.3076 92.6488 15.0589L96.2511 7.2767H97.1497V18.3564H96.1628V10.6463Z" fill="white"/>
</svg>
