<svg width="18" height="18" viewBox="0 0 18 18" fill="none" xmlns="http://www.w3.org/2000/svg">
<path fill-rule="evenodd" clip-rule="evenodd" d="M11.373 4.56189C11.6093 4.56513 11.8462 4.56838 12.0839 4.57081C14.6379 4.57081 16.5 6.39162 16.5 8.90607V12.1358C16.5 14.6503 14.6379 16.4711 12.0839 16.4711C11.0608 16.4928 10.0378 16.5 9.00736 16.5C7.97694 16.5 6.93916 16.4928 5.91609 16.4711C3.36212 16.4711 1.5 14.6503 1.5 12.1358V8.90607C1.5 6.39162 3.36212 4.57081 5.92345 4.57081C6.88763 4.55636 7.8739 4.54191 8.87488 4.54191V4.41908C8.87488 3.92052 8.45535 3.5159 7.95486 3.5159H7.2262C6.3945 3.5159 5.71737 2.85116 5.71737 2.04191C5.71737 1.74566 5.96762 1.5 6.26938 1.5C6.57851 1.5 6.82139 1.74566 6.82139 2.04191C6.82139 2.25867 7.0054 2.43208 7.2262 2.43208H7.95486C9.06624 2.43931 9.97154 3.32803 9.9789 4.41185V4.54913C10.4429 4.54913 10.9069 4.5555 11.373 4.56189ZM8.13872 11.0592H7.3659V11.8251C7.3659 12.1214 7.11565 12.367 6.81389 12.367C6.50476 12.367 6.26188 12.1214 6.26188 11.8251V11.0592H5.4817C5.17993 11.0592 4.92969 10.8208 4.92969 10.5173C4.92969 10.2211 5.17993 9.97541 5.4817 9.97541H6.26188V9.21674C6.26188 8.9205 6.50476 8.67484 6.81389 8.67484C7.11565 8.67484 7.3659 8.9205 7.3659 9.21674V9.97541H8.13872C8.44048 9.97541 8.69073 10.2211 8.69073 10.5173C8.69073 10.8208 8.44048 11.0592 8.13872 11.0592ZM11.2668 9.83813H11.3404C11.6422 9.83813 11.8924 9.59969 11.8924 9.29623C11.8924 8.99998 11.6422 8.75432 11.3404 8.75432H11.2668C10.9577 8.75432 10.7148 8.99998 10.7148 9.29623C10.7148 9.59969 10.9577 9.83813 11.2668 9.83813ZM12.5252 12.3237H12.5988C12.9005 12.3237 13.1508 12.0852 13.1508 11.7818C13.1508 11.4855 12.9005 11.2399 12.5988 11.2399H12.5252C12.2153 11.2399 11.9731 11.4855 11.9731 11.7818C11.9731 12.0852 12.2153 12.3237 12.5252 12.3237Z" fill="#4C5462"/>
</svg>
