<svg width="24" height="24" viewBox="0 0 24 24" fill="none" xmlns="http://www.w3.org/2000/svg">
<path d="M20.6999 5.87805H19.2438C19.4358 5.57414 19.5626 5.23301 19.5987 4.87223C19.7142 3.71922 19.1068 2.68563 18.0728 2.22739C17.1223 1.80617 16.0542 1.97836 15.2851 2.67578L13.4464 4.3418C13.0883 3.95024 12.5736 3.70414 12.0023 3.70414C11.43 3.70414 10.9144 3.95102 10.5562 4.34379L8.71516 2.67559C7.94479 1.97817 6.87712 1.80664 5.9271 2.22762C4.89335 2.6859 4.28587 3.71985 4.40168 4.87282C4.4379 5.23332 4.56457 5.5743 4.7566 5.87805H3.30463C2.58408 5.87805 2 6.46203 2 7.18239V9.13891C2 9.49907 2.29206 9.7911 2.65234 9.7911H21.3523C21.7125 9.7911 22.0046 9.49911 22.0046 9.13891V7.18239C22.0045 6.46203 21.4205 5.87805 20.6999 5.87805ZM10.0453 5.66067V5.87805H6.97652C6.16571 5.87805 5.5276 5.12235 5.73011 4.27836C5.81931 3.90668 6.08765 3.58985 6.43472 3.42946C6.91131 3.20922 7.43924 3.27992 7.83953 3.64215L10.0459 5.64145C10.0457 5.64789 10.0453 5.65422 10.0453 5.66067ZM18.3043 4.69907C18.2556 5.37692 17.6432 5.87813 16.9635 5.87813H13.9592V5.66075C13.9592 5.65305 13.9588 5.64543 13.9587 5.63774C14.4585 5.18477 15.5428 4.20227 16.1308 3.66934C16.465 3.36649 16.9327 3.22512 17.365 3.35403C17.9853 3.53903 18.3496 4.06645 18.3043 4.69907Z" fill="url(#paint0_linear_1_110)"/>
<path d="M3.30469 11.0945V20.6597C3.30469 21.3801 3.88877 21.9641 4.60932 21.9641H10.6977V11.0945H3.30469Z" fill="url(#paint1_linear_1_110)"/>
<path d="M13.3071 11.0945V21.9641H19.3955C20.116 21.9641 20.7001 21.3801 20.7001 20.6597V11.0945H13.3071Z" fill="url(#paint2_linear_1_110)"/>
<defs>
<linearGradient id="paint0_linear_1_110" x1="-8.83499" y1="0.355213" x2="-5.76872" y2="17.8435" gradientUnits="userSpaceOnUse">
<stop offset="0.0760203" stop-color="#1C4FD6"/>
<stop offset="1" stop-color="#0697E9"/>
</linearGradient>
<linearGradient id="paint1_linear_1_110" x1="-0.699536" y1="8.7998" x2="10.8751" y2="26.2871" gradientUnits="userSpaceOnUse">
<stop offset="0.0760203" stop-color="#1C4FD6"/>
<stop offset="1" stop-color="#0697E9"/>
</linearGradient>
<linearGradient id="paint2_linear_1_110" x1="9.30291" y1="8.7998" x2="20.8776" y2="26.2871" gradientUnits="userSpaceOnUse">
<stop offset="0.0760203" stop-color="#1C4FD6"/>
<stop offset="1" stop-color="#0697E9"/>
</linearGradient>
</defs>
</svg>
