<svg width="24" height="24" viewBox="0 0 24 24" fill="none" xmlns="http://www.w3.org/2000/svg">
<path d="M18.17 12.15H18.5321L18.2761 11.8939L14.3961 8.01391C14.0646 7.68249 14.0646 7.14747 14.3961 6.81605C14.7283 6.48385 15.2722 6.48586 15.5926 6.81466L15.5941 6.81624L21.1939 12.396L21.1941 12.3962C21.5254 12.7277 21.5253 13.2626 21.1939 13.5939L15.6039 19.1839C15.2725 19.5153 14.7375 19.5153 14.4061 19.1839C14.0746 18.8525 14.0746 18.3175 14.4061 17.986L18.2861 14.106L18.5421 13.85H18.18H3C2.53284 13.85 2.15 13.4671 2.15 13C2.15 12.5328 2.53284 12.15 3 12.15H18.17Z" fill="white" stroke="#070F23" stroke-width="0.3"/>
</svg>
