<svg width="18" height="18" viewBox="0 0 18 18" fill="none" xmlns="http://www.w3.org/2000/svg">
<path fill-rule="evenodd" clip-rule="evenodd" d="M12.0245 6.17463C12.0245 7.93689 10.6622 9.34993 8.96319 9.34993C7.26418 9.34993 5.90186 7.93689 5.90186 6.17463C5.90186 4.4117 7.26418 3 8.96319 3C10.6622 3 12.0245 4.4117 12.0245 6.17463ZM8.9631 15C6.46767 15 4.33691 14.5921 4.33691 12.9602C4.33691 11.3276 6.45399 10.9048 8.9631 10.9048C11.4585 10.9048 13.5893 11.3127 13.5893 12.9453C13.5893 14.5772 11.4722 15 8.9631 15ZM13.3326 6.23196C13.3326 7.13031 13.0728 7.9672 12.6169 8.66292C12.5701 8.73451 12.6117 8.8311 12.6944 8.84596C12.8084 8.86623 12.9263 8.87771 13.0461 8.88109C14.2411 8.91351 15.3136 8.1158 15.6099 6.91484C16.0488 5.13097 14.7601 3.52947 13.119 3.52947C12.9406 3.52947 12.77 3.54906 12.6039 3.58419C12.5811 3.58959 12.557 3.6004 12.544 3.62134C12.5284 3.647 12.5401 3.68145 12.5557 3.70374C13.0487 4.4204 13.3326 5.29443 13.3326 6.23196ZM15.3113 10.1344C16.1142 10.2972 16.6424 10.6295 16.8612 11.1125C17.0461 11.509 17.0461 11.969 16.8612 12.3648C16.5264 13.1138 15.4474 13.3543 15.028 13.4164C14.9414 13.43 14.8717 13.3523 14.8808 13.2624C15.0951 11.1868 13.3909 10.2026 12.95 9.97636C12.9311 9.96623 12.9272 9.9507 12.9292 9.94124C12.9305 9.93449 12.9383 9.92368 12.9526 9.92165C13.9066 9.90342 14.9323 10.0385 15.3113 10.1344ZM4.95395 8.88102C5.07377 8.87764 5.19099 8.86684 5.3056 8.8459C5.38831 8.83104 5.42998 8.73445 5.3831 8.66285C4.92725 7.96713 4.66742 7.13025 4.66742 6.23189C4.66742 5.29437 4.95134 4.42033 5.44431 3.70367C5.45994 3.68138 5.47101 3.64694 5.45603 3.62127C5.44301 3.60101 5.41826 3.58952 5.39612 3.58412C5.22941 3.549 5.05879 3.52941 4.88036 3.52941C3.23932 3.52941 1.95057 5.13091 2.39014 6.91478C2.68644 8.11573 3.75898 8.91344 4.95395 8.88102ZM5.07054 9.9409C5.0725 9.95103 5.06859 9.96589 5.05036 9.9767C4.60884 10.203 2.90462 11.1871 3.11887 13.2621C3.12799 13.3526 3.05896 13.4296 2.97235 13.4168C2.55297 13.3546 1.47392 13.1142 1.1392 12.3651C0.953601 11.9686 0.953601 11.5093 1.1392 11.1128C1.358 10.6299 1.88548 10.2975 2.68842 10.1341C3.06808 10.0388 4.09308 9.90375 5.04775 9.92199C5.06208 9.92401 5.06924 9.93482 5.07054 9.9409Z" fill="#4C5462"/>
</svg>
