<svg width="14" height="14" viewBox="0 0 14 14" fill="none" xmlns="http://www.w3.org/2000/svg">
<path d="M13.8478 12.4536H0.152174C0.0684783 12.4536 0 12.5269 0 12.6164V13.8372C0 13.9268 0.0684783 14 0.152174 14H13.8478C13.9315 14 14 13.9268 14 13.8372V12.6164C14 12.5269 13.9315 12.4536 13.8478 12.4536ZM4.62228 3.2101H6.02799V10.0934C6.02799 10.1829 6.09647 10.2562 6.18016 10.2562H7.32147C7.40516 10.2562 7.47364 10.1829 7.47364 10.0934V3.2101H8.88315C9.0106 3.2101 9.08098 3.05343 9.00299 2.94763L6.87255 0.0624542C6.85832 0.0429991 6.84013 0.0272649 6.81937 0.0164442C6.79861 0.00562349 6.77581 0 6.75272 0C6.72962 0 6.70683 0.00562349 6.68607 0.0164442C6.6653 0.0272649 6.64711 0.0429991 6.63288 0.0624542L4.50245 2.94559C4.42446 3.05343 4.49484 3.2101 4.62228 3.2101Z" fill="white"/>
</svg>
