<svg width="24" height="24" viewBox="0 0 24 24" fill="none" xmlns="http://www.w3.org/2000/svg">
<path d="M4.30615 10.888C9.40641 8.63001 12.8074 7.14143 14.5091 6.42222C19.3677 4.36873 20.3773 4.01202 21.0354 4.00011C21.1801 3.99765 21.5037 4.0341 21.7133 4.20693C21.8903 4.35287 21.939 4.55001 21.9623 4.68837C21.9856 4.82673 22.0146 5.14193 21.9916 5.38822C21.7283 8.19928 20.589 15.021 20.0094 18.1694C19.7642 19.5017 19.2813 19.9484 18.8138 19.9921C17.7978 20.0871 17.0263 19.3098 16.0422 18.6543C14.5024 17.6287 13.6325 16.9902 12.1378 15.9894C10.4105 14.8327 11.5303 14.197 12.5147 13.158C12.7723 12.8861 17.2488 8.74875 17.3354 8.37343C17.3463 8.32649 17.3563 8.15151 17.254 8.05912C17.1517 7.96673 17.0007 7.99833 16.8918 8.02345C16.7373 8.05907 14.2775 9.71119 9.51212 12.9798C8.81389 13.467 8.18145 13.7044 7.61481 13.692C6.99014 13.6782 5.78851 13.3331 4.89523 13.038C3.79958 12.6761 2.92878 12.4848 3.0046 11.8701C3.0441 11.55 3.47795 11.2226 4.30615 10.888Z" fill="url(#paint0_linear_1_225)"/>
<defs>
<linearGradient id="paint0_linear_1_225" x1="-7.29088" y1="0.622222" x2="4.97953" y2="32.989" gradientUnits="userSpaceOnUse">
<stop offset="0.0760203" stop-color="#1C4FD6"/>
<stop offset="1" stop-color="#0697E9"/>
</linearGradient>
</defs>
</svg>
