<svg width="24" height="24" viewBox="0 0 24 24" fill="none" xmlns="http://www.w3.org/2000/svg">
<path d="M5.83 12.15H5.46787L5.72393 11.8939L9.60393 8.01391C9.93536 7.68249 9.93536 7.14747 9.60393 6.81605C9.27174 6.48385 8.7278 6.48586 8.40743 6.81466L8.40588 6.81624L2.80607 12.396L2.80588 12.3962C2.47465 12.7277 2.47471 13.2626 2.80607 13.5939L8.39607 19.1839C8.72749 19.5153 9.26251 19.5153 9.59393 19.1839C9.92535 18.8525 9.92535 18.3175 9.59393 17.986L5.71393 14.106L5.45787 13.85H5.82H21C21.4672 13.85 21.85 13.4671 21.85 13C21.85 12.5328 21.4672 12.15 21 12.15H5.83Z" fill="#4C5462" stroke="#070F23" stroke-width="0.3"/>
</svg>
