<svg width="24" height="24" viewBox="0 0 24 24" fill="none" xmlns="http://www.w3.org/2000/svg">
<path fill-rule="evenodd" clip-rule="evenodd" d="M4.93775 6H2.75019C2.12503 6 2 6.3136 2 6.66027C2 7.27787 2.74119 10.3435 5.45388 14.3968C7.26134 17.1659 9.80899 18.6667 12.1266 18.6667C13.5179 18.6667 13.69 18.3328 13.69 17.76V15.6672C13.69 15.0005 13.822 14.8672 14.2621 14.8672C14.5872 14.8672 15.1423 15.04 16.4417 16.3744C17.925 17.9573 18.1691 18.6667 19.0033 18.6667H21.1919C21.817 18.6667 22.1301 18.3328 21.9491 17.6747C21.752 17.0197 21.0438 16.0683 20.1036 14.9408C19.5935 14.2987 18.8293 13.6064 18.5972 13.2597C18.2721 12.8149 18.3652 12.6176 18.5972 12.2219C18.5972 12.2219 21.2629 8.2176 21.541 6.8576C21.681 6.36373 21.541 6 20.8788 6H18.6912C18.1351 6 17.878 6.3136 17.739 6.66027C17.739 6.66027 16.6267 9.552 15.0503 11.4304C14.5402 11.9744 14.3081 12.1483 14.0301 12.1483C13.891 12.1483 13.69 11.9744 13.69 11.4805V6.8576C13.69 6.26453 13.5289 6 13.0648 6H9.62594C9.27885 6 9.0698 6.2752 9.0698 6.53653C9.0698 7.09867 9.858 7.2288 9.93902 8.81067V12.2464C9.93902 13.0005 9.81198 13.1371 9.53291 13.1371C8.79173 13.1371 6.98727 10.2315 5.917 6.90773C5.70694 6.26133 5.49689 6 4.93775 6Z" fill="url(#paint0_linear_1_120)"/>
<defs>
<linearGradient id="paint0_linear_1_120" x1="-8.83251" y1="3.32593" x2="-1.10492" y2="30.429" gradientUnits="userSpaceOnUse">
<stop offset="0.0760203" stop-color="#1C4FD6"/>
<stop offset="1" stop-color="#0697E9"/>
</linearGradient>
</defs>
</svg>
