<svg width="24" height="24" viewBox="0 0 24 24" fill="none" xmlns="http://www.w3.org/2000/svg">
<path d="M11.6684 2.00533C13.8097 1.93445 15.973 2.57229 17.7225 3.81567C19.8349 5.28729 21.3337 7.60625 21.8097 10.1409C22.1965 11.9753 21.9761 13.9075 21.3078 15.649C20.4325 17.9283 18.6914 19.8544 16.5187 20.957C15.1144 21.6626 13.5416 22.0815 11.9626 21.9867C10.6466 22.0628 9.33372 21.7658 8.12372 21.2582C5.67877 20.2369 3.68088 18.1941 2.71422 15.722C1.9564 13.824 1.78579 11.6896 2.27858 9.70314C2.83895 7.28314 4.35236 5.10704 6.4064 3.72081C7.95115 2.66296 9.8004 2.07099 11.6684 2.00533ZM9.76506 4.36077C7.66841 4.96938 5.85231 6.4838 4.88042 8.44416C4.12465 9.9252 3.88661 11.649 4.13931 13.2885C4.18084 13.4864 4.16213 13.7115 4.29007 13.8815C5.08621 12.0993 6.04058 10.3087 7.57266 9.04967C9.04161 7.88761 10.8149 6.99964 12.7193 6.96522C12.3336 6.50563 11.9459 6.04807 11.5499 5.59674C12.9157 5.98239 14.2775 6.38366 15.6299 6.81511C14.7016 7.74792 13.7755 8.68385 12.8086 9.57604C12.8399 9.00174 12.8835 8.42643 12.8981 7.8511C12.2317 7.96785 11.6112 8.28889 11.0956 8.72243C9.97082 9.67403 9.30863 11.0581 8.89699 12.4495C8.47286 13.8795 8.29624 15.3854 8.37001 16.8747C9.42405 16.7539 10.4459 16.3911 11.3668 15.8679C12.4906 15.228 13.4417 14.2139 13.8243 12.957C13.3399 13.0351 12.8596 13.1416 12.3835 13.2592C13.1527 12.2795 13.9395 11.3134 14.7068 10.3316C15.3669 11.426 16.0415 12.5129 16.6194 13.6543C16.106 13.4552 15.6226 13.1853 15.0987 13.0153C15.636 15.1645 15.5176 17.4865 14.6621 19.5365C16.9615 18.7351 18.8335 16.808 19.5685 14.4807C20.2234 12.4453 20.0385 10.1367 19.0125 8.25562C18.1444 6.61415 16.6778 5.30608 14.9594 4.61615C13.3212 3.95327 11.4605 3.87717 9.76506 4.36077Z" fill="url(#paint0_linear_1_122)"/>
<defs>
<linearGradient id="paint0_linear_1_122" x1="-8.83251" y1="-2.22222" x2="8.48864" y2="36.2532" gradientUnits="userSpaceOnUse">
<stop offset="0.0760203" stop-color="#1C4FD6"/>
<stop offset="1" stop-color="#0697E9"/>
</linearGradient>
</defs>
</svg>
